<?xml version="1.0" encoding="UTF-8"?>
<svg version="1.1" xmlns="http://www.w3.org/2000/svg" width="1024" height="1024">
<path d="M0 0 C101.56816752 -1.90450151 201.67908312 28.79870282 295.07666016 97.06201172 C296.42630859 98.11195313 296.42630859 98.11195313 297.80322266 99.18310547 C313.39120028 111.48028782 327.99315137 124.79122442 342.02319336 138.82324219 C343.76804824 140.56589489 345.52079758 142.30034334 347.27392578 144.03466797 C354.00932015 150.73684478 360.17627896 157.60491778 366.07666016 165.06201172 C367.0235415 166.18689648 367.97677855 167.30650462 368.93994141 168.41748047 C386.11481349 188.27678232 401.15475453 210.21506519 414.07666016 233.06201172 C414.51896973 233.84125 414.9612793 234.62048828 415.41699219 235.42333984 C466.71292298 326.331032 485.87944917 430.9517679 459.31542969 590.86938477 C437.35960122 669.47166165 394.84594261 739.48613261 337.31542969 797.00854492 C335.57277698 798.7533998 333.83832853 800.50614914 332.10400391 802.25927734 C325.4018271 808.99467172 318.53375409 815.16163052 311.07666016 821.06201172 C309.9517754 822.00889307 308.83216725 822.96213012 307.72119141 823.92529297 C287.86188956 841.10016505 265.92360669 856.14010609 243.07666016 869.06201172 C242.29742188 869.50432129 241.51818359 869.94663086 240.71533203 870.40234375 C149.80763988 921.69827454 45.18690398 940.86480073 -114.73071289 914.30078125 C-172.31723484 898.2152447 -226.87859804 870.99613091 -273.92333984 834.06201172 C-274.82310547 833.36205078 -275.72287109 832.66208984 -276.64990234 831.94091797 C-292.23787997 819.64373562 -306.83983106 806.33279902 -320.86987305 792.30078125 C-322.61472792 790.55812855 -324.36747727 788.82368009 -326.12060547 787.08935547 C-332.85599984 780.38717866 -339.02295865 773.51910565 -344.92333984 766.06201172 C-345.87022119 764.93712696 -346.82345824 763.81751881 -347.78662109 762.70654297 C-364.9604958 742.84839439 -380.00694325 720.91070986 -392.92333984 698.06201172 C-393.3709668 697.27213867 -393.81859375 696.48226562 -394.27978516 695.66845703 C-431.34570992 629.86964062 -453.64612809 554.85792306 -454.92333984 479.06201172 C-454.94380371 478.09730957 -454.96426758 477.13260742 -454.98535156 476.13867188 C-456.71086003 384.1163069 -431.94808474 292.2510482 -357.92333984 181.06201172 C-357.22080078 180.15837891 -356.51826172 179.25474609 -355.79443359 178.32373047 C-343.4941887 162.74342027 -330.19138107 148.14277482 -316.16210938 134.11547852 C-314.41945667 132.37062364 -312.68500822 130.61787429 -310.95068359 128.86474609 C-304.24850678 122.12935172 -297.38043378 115.96239292 -289.92333984 110.06201172 C-288.79845509 109.11513037 -287.67884694 108.16189332 -286.56787109 107.19873047 C-266.70972251 90.02485576 -244.77203799 74.97840831 -221.92333984 62.06201172 C-221.1334668 61.61438477 -220.34359375 61.16675781 -219.52978516 60.70556641 C-152.39309094 22.88598556 -77.15389979 1.63663693 0 0 Z " fill="#E59D00" transform="translate(500.92333984375,44.93798828125)"/>
<path d="M0 0 C1.12754674 -0.00226556 2.25509348 -0.00453111 3.41680831 -0.00686532 C7.1907804 -0.01318996 10.96471644 -0.01237696 14.73869324 -0.0115509 C17.44580725 -0.01400024 20.15291874 -0.01791759 22.86003113 -0.02172852 C29.44578166 -0.03002076 36.03152324 -0.03278264 42.61727855 -0.03334089 C47.96749656 -0.03381639 53.31771162 -0.03587279 58.6679287 -0.03904152 C73.83426213 -0.04784139 89.0005885 -0.05246152 104.16692451 -0.05171105 C105.39233529 -0.05165111 105.39233529 -0.05165111 106.64250183 -0.05158997 C107.86940573 -0.05152864 107.86940573 -0.05152864 109.12109556 -0.05146609 C122.39832364 -0.051059 135.67552344 -0.06064602 148.95274333 -0.07472833 C162.58318619 -0.0890715 176.21361524 -0.09599977 189.84406585 -0.09513456 C197.49779976 -0.09480205 205.15150397 -0.09757312 212.80523109 -0.10831261 C219.31613239 -0.11739017 225.8269905 -0.1196153 232.33789537 -0.11280318 C235.66168921 -0.10952504 238.98538228 -0.11060233 242.30917168 -0.11815643 C245.90557158 -0.12580407 249.50174985 -0.12127999 253.09814453 -0.11352539 C254.15755479 -0.11866895 255.21696505 -0.12381252 256.30847865 -0.12911195 C257.26607764 -0.12451315 258.22367663 -0.11991435 259.21029377 -0.1151762 C260.04112455 -0.11539357 260.87195532 -0.11561094 261.72796279 -0.11583489 C263.73161316 0.13371277 263.73161316 0.13371277 265.73161316 2.13371277 C267.09707349 2.39742828 268.47560574 2.59486443 269.85661316 2.75871277 C287.25047987 6.04199308 304.34936096 19.18381406 314.73161316 33.13371277 C324.79748243 48.50704039 330.05051239 64.01161194 329.9990387 82.43707275 C330.00356981 83.6398313 330.00810092 84.84258985 330.01276934 86.08179563 C330.02318408 89.39396186 330.0247488 92.70590967 330.02238059 96.01807654 C330.02197034 99.60026239 330.03303104 103.18241655 330.04249573 106.7645874 C330.05905886 113.77138497 330.06460306 120.77814887 330.06572048 127.78496439 C330.06667275 133.48116395 330.07079194 139.17735245 330.07712173 144.87354851 C330.0947178 161.03811502 330.10396263 177.20265504 330.10246079 193.3672312 C330.10238087 194.23738935 330.10230096 195.10754751 330.10221863 196.0040741 C330.10213687 196.87529903 330.10205511 197.74652396 330.10197087 198.64414965 C330.10115741 212.7733064 330.12031431 226.9023567 330.14849536 241.03148264 C330.17723107 255.55363964 330.19103542 270.0757447 330.18930781 284.59793085 C330.18864437 292.74539756 330.1941172 300.89275251 330.21566391 309.04019356 C330.23388429 315.97392899 330.2382157 322.90750194 330.22464506 329.84125096 C330.21812097 333.37663942 330.21797782 336.9117162 330.23535156 340.44707489 C330.25401304 344.28397255 330.24151394 348.12041653 330.22608948 351.95733643 C330.2363766 353.06823845 330.24666373 354.17914048 330.25726259 355.32370621 C330.17927873 364.10656986 328.09967783 371.7656481 321.73161316 378.13371277 C312.19385493 385.02097818 306.61781345 385.13371277 293.73161316 385.13371277 C293.73161316 405.92371277 293.73161316 426.71371277 293.73161316 448.13371277 C298.68161316 448.13371277 303.63161316 448.13371277 308.73161316 448.13371277 C317.50628704 451.36117902 323.74696693 456.37693285 328.73161316 464.32121277 C330.99519651 472.9511243 330.85717669 481.08519971 326.34489441 488.91496277 C321.89328918 495.03726729 315.90111825 499.61881472 308.73161316 502.13371277 C304.49722978 502.70198599 300.30655564 502.66968061 296.03924561 502.63491821 C294.13588193 502.64321981 294.13588193 502.64321981 292.19406646 502.65168911 C288.68751542 502.66639934 285.18141548 502.65628909 281.67487919 502.6419524 C277.88663445 502.63082003 274.09845182 502.64279314 270.31021118 502.65179443 C262.89265851 502.66571716 255.47527628 502.65817615 248.05773176 502.64311885 C239.40726472 502.6262304 230.75683982 502.62947298 222.10636138 502.63321293 C206.65792465 502.63909058 191.20956942 502.62492802 175.76115417 502.6002655 C160.79920897 502.57638252 145.83737282 502.56924679 130.87541199 502.57975769 C114.56493662 502.5911955 98.25451169 502.5930588 81.9440369 502.57865959 C80.20062602 502.57713387 78.45721514 502.57561352 76.71380424 502.57409859 C75.42732865 502.57296187 75.42732865 502.57296187 74.11486365 502.57180218 C68.09844475 502.56707848 62.0820485 502.56889741 56.06562996 502.57316399 C48.71706334 502.57811739 41.36859939 502.57198928 34.02005614 502.55226969 C30.27717785 502.54247011 26.53445507 502.53721181 22.79156876 502.5451622 C-5.75107224 502.59935431 -33.48946625 500.39848164 -55.04182434 479.42277527 C-55.77658997 478.66738464 -56.51135559 477.91199402 -57.26838684 477.13371277 C-58.02377747 476.39894714 -58.77916809 475.66418152 -59.55744934 474.90715027 C-66.37827679 467.89880866 -70.80760198 459.74664565 -75.26838684 451.13371277 C-75.8265509 450.06250183 -76.38471497 448.99129089 -76.95979309 447.88761902 C-78.61312208 444.40822519 -79.43524013 440.86969019 -80.26838684 437.13371277 C-80.61220713 435.86276292 -80.95602741 434.59181307 -81.31026649 433.28234959 C-82.74414764 426.76817849 -82.55184721 420.20521144 -82.53581238 413.56802368 C-82.53955338 412.09497838 -82.54415669 410.62193505 -82.54954302 409.14889485 C-82.56173318 405.11833242 -82.56151727 401.08785324 -82.55915427 397.05727661 C-82.55874508 392.70329195 -82.56979508 388.34933362 -82.57926941 383.99536133 C-82.59585937 375.47074858 -82.60137808 366.9461635 -82.60249417 358.42153596 C-82.60344575 351.48824515 -82.60756158 344.55496343 -82.61389542 337.62167549 C-82.63150368 317.94505965 -82.64073513 298.26846559 -82.63923447 278.59184181 C-82.63915456 277.5317896 -82.63907464 276.47173738 -82.63899231 275.37956238 C-82.63891055 274.31820877 -82.63882879 273.25685516 -82.63874455 272.16333932 C-82.63793215 254.97372247 -82.65705935 237.78419335 -82.68526904 220.59460186 C-82.71403595 202.92535954 -82.72780719 185.25615994 -82.72608149 167.58689362 C-82.72541882 157.67470695 -82.73085682 147.76261221 -82.75243759 137.8504467 C-82.77069971 129.40870062 -82.77495569 120.96708812 -82.76141874 112.52533077 C-82.75491392 108.22355149 -82.75468118 103.92202811 -82.77212524 99.62027359 C-82.78797241 95.67145417 -82.7848753 91.72309106 -82.76755698 87.77428199 C-82.76451241 86.35637321 -82.76802185 84.93842936 -82.77927713 83.52056199 C-82.875695 70.49730031 -80.78874421 57.40608035 -74.51838684 45.82121277 C-74.0040509 44.83604675 -74.0040509 44.83604675 -73.47932434 43.83097839 C-62.56012174 23.44713851 -44.77625509 9.1037326 -22.70588684 2.19621277 C-15.17139573 0.10867487 -7.76384383 -0.01146962 0 0 Z " fill="#FEFDFD" transform="translate(386.2683868408203,266.8662872314453)"/>
<path d="M0 0 C101.56816752 -1.90450151 201.67908312 28.79870282 295.07666016 97.06201172 C296.42630859 98.11195313 296.42630859 98.11195313 297.80322266 99.18310547 C313.39120028 111.48028782 327.99315137 124.79122442 342.02319336 138.82324219 C343.76804824 140.56589489 345.52079758 142.30034334 347.27392578 144.03466797 C354.00932015 150.73684478 360.17627896 157.60491778 366.07666016 165.06201172 C367.0235415 166.18689648 367.97677855 167.30650462 368.93994141 168.41748047 C386.11481349 188.27678232 401.15475453 210.21506519 414.07666016 233.06201172 C414.51896973 233.84125 414.9612793 234.62048828 415.41699219 235.42333984 C421.43711162 246.09231799 427.10667431 256.91408196 432.45166016 267.93701172 C433.1647937 269.3956665 433.1647937 269.3956665 433.89233398 270.88378906 C437.84956615 279.16662566 440.81638584 287.36794688 444.07666016 296.06201172 C368.50666016 296.06201172 292.93666016 296.06201172 215.07666016 296.06201172 C213.75666016 290.78201172 212.43666016 285.50201172 211.07666016 280.06201172 C203.84294483 257.63749422 189.93352622 241.41210352 168.95166016 230.62451172 C163.70022373 228.01806826 158.7737881 226.11082351 152.89697266 225.41357422 C151.07666016 225.06201172 151.07666016 225.06201172 149.07666016 223.06201172 C147.00189356 222.75821475 147.00189356 222.75821475 144.57489395 222.80753613 C143.62161186 222.80170393 142.66832976 222.79587174 141.68616033 222.78986281 C140.6315249 222.79364214 139.57688948 222.79742146 138.49029541 222.80131531 C137.37548758 222.79748976 136.26067976 222.79366421 135.11208987 222.78972274 C131.35055847 222.77934715 127.58917842 222.78339366 123.82763672 222.78735352 C121.1407266 222.78300929 118.45382784 222.77789194 115.766922 222.77186584 C109.20786665 222.75908774 102.64885219 222.7573294 96.0897865 222.75966611 C90.75385073 222.76144766 85.41792739 222.75970309 80.0819931 222.75544167 C79.32308186 222.75484648 78.56417062 222.75425129 77.78226207 222.75363806 C76.24049038 222.7524263 74.69871868 222.75121217 73.15694699 222.74999569 C58.6794657 222.73910606 44.20200767 222.74128807 29.72452506 222.74738053 C16.50033423 222.7525386 3.2762173 222.74132622 -9.94795892 222.72228231 C-23.5331059 222.70286923 -37.11821798 222.69465477 -50.70337892 222.69840556 C-58.3274009 222.70031394 -65.95136015 222.69786657 -73.57537079 222.68369102 C-80.07362695 222.67173122 -86.57178187 222.67042275 -93.07003954 222.68248119 C-96.38118145 222.68834083 -99.69198828 222.68790173 -103.0031414 222.67747879 C-130.46794687 222.59729447 -153.73393841 227.06945757 -174.13427734 247.08154297 C-186.39241611 259.77356087 -192.18411383 275.20673139 -195.92333984 292.06201172 C-196.25333984 293.38201172 -196.58333984 294.70201172 -196.92333984 296.06201172 C-271.50333984 296.06201172 -346.08333984 296.06201172 -422.92333984 296.06201172 C-413.52835111 272.57453987 -413.52835111 272.57453987 -408.23583984 261.74951172 C-407.79105286 260.83664398 -407.79105286 260.83664398 -407.33728027 259.90533447 C-393.66984031 231.91501771 -377.16370335 205.56937653 -357.92333984 181.06201172 C-357.22337891 180.16224609 -356.52341797 179.26248047 -355.80224609 178.33544922 C-343.50506374 162.74747159 -330.19412715 148.1455205 -316.16210938 134.11547852 C-314.41945667 132.37062364 -312.68500822 130.61787429 -310.95068359 128.86474609 C-304.24850678 122.12935172 -297.38043378 115.96239292 -289.92333984 110.06201172 C-288.79845509 109.11513037 -287.67884694 108.16189332 -286.56787109 107.19873047 C-266.70972251 90.02485576 -244.77203799 74.97840831 -221.92333984 62.06201172 C-221.1334668 61.61438477 -220.34359375 61.16675781 -219.52978516 60.70556641 C-152.39309094 22.88598556 -77.15389979 1.63663693 0 0 Z " fill="#1F191B" transform="translate(500.92333984375,44.93798828125)"/>
<path d="M0 0 C75.57 0 151.14 0 229 0 C237.3027462 21.3499188 237.3027462 21.3499188 240.5 31.75 C240.87672852 32.97533447 241.25345703 34.20066895 241.64160156 35.46313477 C271.43213744 133.77143193 268.68125201 247.07707864 228 342 C140.88 342 53.76 342 -36 342 C-36 331.77 -36 321.54 -36 311 C-31.05 310.67 -26.1 310.34 -21 310 C-11.7188184 306.28752736 -6.57697685 301.82702677 -2 293 C-1.02045144 290.06135432 -0.87058527 288.16372329 -0.8613348 285.10181904 C-0.85586036 284.08566118 -0.85038591 283.06950331 -0.84474558 282.02255279 C-0.84376747 280.90291631 -0.84278936 279.78327983 -0.84178162 278.62971497 C-0.83684364 277.44292151 -0.83190566 276.25612805 -0.82681805 275.03337115 C-0.81408876 271.7336836 -0.80581437 268.43403844 -0.79939139 265.13433611 C-0.79139387 261.57810608 -0.77769387 258.02189756 -0.76467896 254.46568298 C-0.742907 248.30245957 -0.72476514 242.13923398 -0.70907402 235.9759922 C-0.68638194 227.06492947 -0.6582382 218.15389055 -0.62875474 209.242848 C-0.58107071 194.78601399 -0.53780872 180.32917026 -0.49731445 165.87231445 C-0.45796365 151.82705935 -0.41652708 137.78181294 -0.37231445 123.73657227 C-0.36956495 122.86230038 -0.36681544 121.9880285 -0.36398262 121.08726352 C-0.34246404 114.25009873 -0.32082431 107.41293431 -0.29914629 100.57577002 C-0.19288169 67.05053086 -0.09718668 33.52526908 0 0 Z " fill="#9C0123" transform="translate(716,341)"/>
<path d="M0 0 C74.58 0 149.16 0 226 0 C226 112.86 226 225.72 226 342 C151.75 342 77.5 342 1 342 C-9.6037246 313.72340108 -9.6037246 313.72340108 -12.125 305.375 C-12.44573486 304.31764648 -12.76646973 303.26029297 -13.09692383 302.17089844 C-24.51364567 263.64542743 -31.10578432 223.19499498 -32 183 C-32.02191406 182.02514648 -32.04382812 181.05029297 -32.06640625 180.04589844 C-33.1504318 121.81565938 -26.42654686 52.85309372 0 0 Z " fill="#DB0332" transform="translate(78,341)"/>
<path d="M0 0 C66.66 0 133.32 0 202 0 C210.3027462 21.3499188 210.3027462 21.3499188 213.5 31.75 C213.87672852 32.97533447 214.25345703 34.20066895 214.64160156 35.46313477 C230.78143688 88.72433603 236.67840067 144.90005475 233.125 200.375 C233.04660889 201.61475586 232.96821777 202.85451172 232.88745117 204.13183594 C232.28017234 212.81656368 231.2387774 221.38631713 230 230 C224.2563925 225.22485067 218.96510976 220.10597555 213.692276 214.81925964 C212.77566285 213.90420648 211.8590497 212.98915332 210.91466039 212.04637128 C208.38567995 209.5215457 205.85980381 206.99363482 203.33445394 204.46517861 C200.60492414 201.73337942 197.87251003 199.00446773 195.14047241 196.275177 C189.79655079 190.93569452 184.45532693 185.59352131 179.11507595 180.2503679 C174.77735819 175.91039023 170.43866351 171.57139145 166.09927177 167.23308754 C165.48131465 166.61528365 164.86335752 165.99747975 164.22667442 165.36095453 C162.97131639 164.10591623 161.71595612 162.85088017 160.46059363 161.59584633 C148.70037372 149.8384754 136.94321667 138.07804551 125.18710982 126.31656215 C115.09091493 116.21589309 104.9920917 106.11785809 94.89135742 96.02172852 C83.16218236 84.29789802 71.43462208 72.57245614 59.70965666 60.84441549 C58.46111249 59.59555277 57.21256624 58.34669214 55.96401787 57.09783363 C55.34968619 56.48334768 54.73535452 55.86886173 54.10240673 55.23575499 C49.76410574 50.89658899 45.42464219 46.55858771 41.08473396 42.22102928 C35.80372424 36.94281614 30.52448357 31.66284137 25.24754418 26.38055875 C22.55312422 23.68350088 19.8578928 20.9872669 17.16050911 18.29317284 C14.24391504 15.38008219 11.33117216 12.46317208 8.4188385 9.54582214 C7.55593187 8.68514623 6.69302524 7.82447032 5.80396992 6.93771333 C5.0314896 6.16262526 4.25900928 5.38753719 3.46312046 4.5889616 C2.7894939 3.91517269 2.11586734 3.24138378 1.42182785 2.54717702 C0 1 0 1 0 0 Z " fill="#DB0332" transform="translate(743,341)"/>
<path d="M0 0 C1.50739654 -0.00512655 1.50739654 -0.00512655 3.04524553 -0.01035666 C6.38644867 -0.01690446 9.72683449 0.00498965 13.06796265 0.0269165 C15.47334779 0.02804565 17.87873431 0.02740981 20.28411865 0.02514648 C26.12092084 0.02411976 31.95745872 0.04140648 37.79420061 0.06689712 C44.59028556 0.09557969 51.38633384 0.10148544 58.18247084 0.10604981 C70.30060706 0.11478786 82.41863511 0.14136282 94.53671265 0.17926025 C106.30298321 0.21601903 118.06922432 0.24431181 129.83554077 0.2612915 C130.56174046 0.2623424 131.28794014 0.26339329 132.03614588 0.26447603 C135.67955274 0.26969647 139.3229598 0.27475123 142.96636701 0.27972364 C173.15576301 0.32113928 203.3449603 0.3948519 233.53427124 0.48101807 C233.53427124 21.27101807 233.53427124 42.06101807 233.53427124 63.48101807 C202.47590352 63.56923761 171.41765693 63.64307968 140.35920298 63.68527938 C136.69058945 63.69028208 133.02197618 63.69545938 129.35336304 63.70074463 C128.2578533 63.70231849 128.2578533 63.70231849 127.14021205 63.70392415 C115.3222071 63.72131865 103.50428016 63.75285105 91.68632144 63.78962925 C79.55559973 63.8270653 67.42491882 63.84925954 55.29414171 63.85737205 C47.81171048 63.86285432 40.32949977 63.8801553 32.84713643 63.91268393 C27.1049218 63.93637243 21.36284776 63.93883118 15.62059402 63.93344879 C13.26841437 63.93454832 10.91622629 63.94249273 8.56409645 63.95783997 C5.34832909 63.97779132 2.13349917 63.97293778 -1.08229065 63.96203613 C-2.00935741 63.9736875 -2.93642417 63.98533886 -3.89158386 63.9973433 C-13.07378506 63.91341754 -19.99887069 60.61901153 -26.67666626 54.40679932 C-33.7899892 46.74988182 -36.08476605 38.49409767 -35.89932251 28.15289307 C-34.81371135 18.95942918 -30.000228 12.20918019 -23.20010376 6.19976807 C-15.72669583 1.50219737 -8.73977084 -0.11065344 0 0 Z " fill="#976705" transform="translate(393.4657287597656,651.5189819335938)"/>
<path d="M0 0 C65 0 65 0 82 3 C82 3.66 82 4.32 82 5 C82.74121094 5.12632812 83.48242188 5.25265625 84.24609375 5.3828125 C96.23326887 8.06929997 107.04073263 19.40767766 113.54296875 29.40625 C124.07065661 48.14722785 125.95119069 68.14036201 122 89 C120.90139896 92.78199252 119.54614799 96.38047348 118 100 C117.69449219 100.73605469 117.38898438 101.47210938 117.07421875 102.23046875 C116.40130959 103.82822937 115.70411407 105.41574335 115 107 C114.34 107 113.68 107 113 107 C112.62875 108.051875 112.62875 108.051875 112.25 109.125 C108.8042488 117.05022777 103.3563213 122.58620722 96 127 C95.34 127 94.68 127 94 127 C94 127.66 94 128.32 94 129 C91.82220387 130.12751147 89.6354918 131.22553291 87.4375 132.3125 C86.84775391 132.62123047 86.25800781 132.92996094 85.65039062 133.24804688 C61.25244526 145.13422539 20.7148715 139 0 139 C0 93.13 0 47.26 0 0 Z " fill="#420110" transform="translate(384,394)"/>
<path d="M0 0 C8.55431652 7.68712636 15.41557736 20.56656436 16.4609375 32.10546875 C17.1818135 48.66371675 17.1818135 48.66371675 15.4609375 52.10546875 C-7.9690625 52.10546875 -31.3990625 52.10546875 -55.5390625 52.10546875 C-53.13001752 59.92612197 -53.13001752 59.92612197 -47.5390625 64.10546875 C-40.70651011 65.7734517 -33.13845014 65.60476735 -26.5390625 63.10546875 C-24.06865156 61.03965305 -22.25873065 58.81920668 -20.5390625 56.10546875 C-2.56757676 59.63223213 -2.56757676 59.63223213 3.4609375 62.10546875 C6.11561374 62.83400772 8.78172856 63.46972426 11.4609375 64.10546875 C11.4609375 65.09546875 11.4609375 66.08546875 11.4609375 67.10546875 C10.8009375 67.10546875 10.1409375 67.10546875 9.4609375 67.10546875 C9.2546875 67.99234375 9.0484375 68.87921875 8.8359375 69.79296875 C7.44083883 73.15388827 6.10733777 74.60019456 3.19140625 76.734375 C1.27778089 78.18305819 1.27778089 78.18305819 -0.828125 80.53125 C-11.86562425 91.01210303 -27.4954279 93.58615192 -42.10595703 93.45727539 C-59.04289444 92.99506813 -72.72257767 87.36586446 -84.5390625 75.10546875 C-85.12558594 74.5021875 -85.71210937 73.89890625 -86.31640625 73.27734375 C-95.81919179 62.15449045 -96.72499897 47.42529636 -95.78710938 33.49658203 C-95.21939118 28.02391272 -93.68671133 23.14255302 -91.5390625 18.10546875 C-91.1884375 17.21730469 -90.8378125 16.32914062 -90.4765625 15.4140625 C-85.88181932 4.96421256 -77.54367676 -1.81454854 -67.5390625 -6.89453125 C-66.38664063 -7.48041016 -66.38664063 -7.48041016 -65.2109375 -8.078125 C-44.33786296 -17.51247823 -18.04476411 -13.46417015 0 0 Z " fill="#610418" transform="translate(626.5390625,435.89453125)"/>
<path d="M0 0 C1.00730573 -0.00256327 2.01461145 -0.00512655 3.0524416 -0.0077675 C6.41354405 -0.01269233 9.77419312 0.00376642 13.13525391 0.02018738 C15.55019622 0.02103393 17.96513931 0.02055796 20.38008118 0.01885986 C25.57198434 0.01817764 30.76378579 0.0266635 35.95565796 0.04357338 C43.46212339 0.06800589 50.96853419 0.07577298 58.47503507 0.07953735 C70.65526279 0.08609519 82.83543007 0.10603817 95.015625 0.13444519 C106.84407246 0.16200309 118.67250346 0.18322818 130.50097656 0.19596863 C131.23068869 0.1967568 131.96040082 0.19754497 132.71222544 0.19835702 C136.37315772 0.20227228 140.03409011 0.20606337 143.69502258 0.20979273 C174.04233177 0.24086783 204.38956242 0.29451388 234.73681641 0.36076355 C234.73681641 10.26076355 234.73681641 20.16076355 234.73681641 30.36076355 C146.62681641 30.36076355 58.51681641 30.36076355 -32.26318359 30.36076355 C-32.26318359 20.86061695 -31.43944791 16.0451665 -25.20849609 9.05607605 C-17.49047945 1.76535445 -10.34623587 -0.09721808 0 0 Z " fill="#7E011C" transform="translate(391.26318359375,652.6392364501953)"/>
<path d="M0 0 C28.08522727 0 28.08522727 0 37.5625 9 C45.06737828 17.31285689 46.85420074 25.99878335 47 37 C46.44118967 47.30694601 43.48243093 57.51516542 36.3125 65.25 C34 67 34 67 31 67 C31 67.66 31 68.32 31 69 C27.45917084 71.1244975 24.05008109 71.46508363 20 72 C19.67 72.33 19.34 72.66 19 73 C12.73 73 6.46 73 0 73 C0 48.91 0 24.82 0 0 Z " fill="#FCFCFC" transform="translate(422,427)"/>
<path d="M0 0 C5.05693059 4.23723978 9.80841147 8.66091625 14.46484375 13.33203125 C15.48210289 14.3478553 15.48210289 14.3478553 16.51991272 15.38420105 C17.93873833 16.80235102 19.35632147 18.22174506 20.77270508 19.64233398 C22.95214752 21.82718386 25.13694282 24.00658031 27.32226562 26.18554688 C28.7034462 27.56738736 30.08431702 28.94953754 31.46484375 30.33203125 C32.12097153 30.9861348 32.7770993 31.64023834 33.45310974 32.31416321 C38 36.88501892 38 36.88501892 38 38 C29.42 38 20.84 38 12 38 C11.4225 35.586875 10.845 33.17375 10.25 30.6875 C8.17806397 22.28626019 5.72242038 14.22104244 1.75 6.5 C0 3 0 3 0 0 Z " fill="#0C0A0B" transform="translate(704,303)"/>
<path d="M0 0 C3.29045205 1.21135226 3.80933313 2.01825899 6 5 C6.99 7.97 7.98 10.94 9 14 C-1.89 14 -12.78 14 -24 14 C-22.91588592 8.57942959 -21.75779531 5.73538262 -17.85546875 1.8828125 C-12.52313737 -1.63317071 -6.11579266 -0.75354101 0 0 Z " fill="#FAF7F8" transform="translate(594,451)"/>
</svg>
